<?xml version="1.0" standalone="no"?>
<!DOCTYPE svg PUBLIC "-//W3C//DTD SVG 20010904//EN"
 "http://www.w3.org/TR/2001/REC-SVG-20010904/DTD/svg10.dtd">
<svg version="1.0" xmlns="http://www.w3.org/2000/svg"
 width="150.000000pt" height="150.000000pt" viewBox="0 0 150.000000 150.000000"
 preserveAspectRatio="xMidYMid meet">
<metadata>
Created by potrace 1.11, written by Peter Selinger 2001-2013
</metadata>
<g transform="translate(0.000000,150.000000) scale(0.100000,-0.100000)"
fill="#000000" stroke="none">
<path d="M427 1295 c-22 -10 -22 -13 -24 -315 -1 -236 2 -310 12 -326 11 -18
23 -20 94 -19 44 0 85 5 91 11 12 12 15 633 3 645 -13 13 -152 16 -176 4z"/>
<path d="M677 1302 c-37 -4 -45 -24 -45 -115 0 -62 3 -79 17 -86 22 -12 381
-11 404 0 14 8 17 24 17 92 0 45 -4 88 -9 96 -7 10 -47 14 -182 15 -96 0 -186
0 -202 -2z"/>
<path d="M189 1059 c-16 -16 -18 -39 -18 -209 0 -185 0 -190 22 -204 26 -16
162 -15 178 1 15 15 16 400 0 416 -6 6 -45 11 -87 12 -62 2 -81 -2 -95 -16z"/>
<path d="M645 1060 c-18 -20 -20 -176 -2 -187 6 -4 151 -8 321 -8 246 0 312 2
323 13 15 16 18 158 3 182 -14 22 -625 23 -645 0z"/>
<path d="M650 833 c-16 -11 -19 -25 -19 -93 0 -101 8 -108 115 -105 42 2 80 7
86 13 14 14 14 170 0 184 -16 16 -158 18 -182 1z"/>
<path d="M876 835 c-14 -11 -16 -49 -16 -322 0 -267 2 -312 15 -323 22 -19
174 -18 186 1 5 8 9 154 9 325 0 288 -1 312 -17 319 -30 13 -159 12 -177 0z"/>
<path d="M1111 839 c-20 -8 -21 -13 -21 -206 0 -109 4 -205 9 -212 12 -18 156
-23 184 -7 15 10 17 31 17 206 0 107 -4 202 -9 209 -11 17 -142 23 -180 10z"/>
<path d="M187 608 c-7 -4 -13 -42 -15 -91 -3 -69 -1 -85 13 -97 15 -12 72 -15
323 -15 201 0 310 3 319 10 19 14 22 170 4 188 -9 9 -93 12 -322 12 -171 0
-316 -3 -322 -7z"/>
<path d="M406 375 c-19 -20 -20 -169 0 -186 10 -8 72 -12 210 -12 213 0 213
-1 215 58 3 108 1 129 -16 141 -25 19 -390 18 -409 -1z"/>
</g>
</svg>
